<svg width="178" height="36" viewBox="0 0 178 36" fill="none" xmlns="http://www.w3.org/2000/svg">
<path d="M42.5562 10.3505C44.1139 11.9285 44.9095 14.2268 44.9095 17.2797V28.977C44.9095 29.2171 44.7107 29.4229 44.4786 29.4229H40.5676C40.3357 29.4229 40.1367 29.2171 40.1367 28.977V17.9314C40.1367 16.0791 39.7059 14.6727 38.8773 13.7465C38.0488 12.8203 36.8225 12.3401 35.2647 12.3401C33.5082 12.3401 32.1162 12.889 31.0888 13.9866C30.0612 15.0843 29.5641 16.6622 29.5641 18.7204V28.977C29.5641 29.2171 29.3651 29.4229 29.1333 29.4229H25.1892C24.9571 29.4229 24.7583 29.2171 24.7583 28.977V9.66449C24.7583 8.49818 26.1173 7.88073 26.9457 8.66969L29.332 10.968C30.1276 9.97321 31.1219 9.25284 32.3149 8.7383C33.5082 8.22376 34.867 7.98364 36.3916 7.98364C38.9437 8.01795 40.9985 8.8069 42.5562 10.3505Z" fill="#262429"/>
<path d="M54.1226 28.3595C52.4322 27.4331 51.1066 26.1297 50.1785 24.4832C49.2173 22.8366 48.7533 20.9501 48.7533 18.8575C48.7533 16.765 49.2173 14.9127 50.1785 13.2661C51.1397 11.6196 52.4322 10.3504 54.1226 9.42423C55.8129 8.49806 57.702 8.01782 59.8563 8.01782C61.8782 8.01782 63.6347 8.42945 65.1593 9.28702C66.5514 10.076 67.645 11.1394 68.4074 12.5458C68.5067 12.7516 68.4405 13.026 68.2417 13.1289L65.2588 14.9127C65.0598 15.0156 64.8278 14.9813 64.6954 14.7755C64.1319 13.9522 63.469 13.3347 62.7068 12.9231C61.8118 12.4429 60.8506 12.2028 59.8232 12.2028C58.0335 12.2028 56.542 12.8202 55.382 14.0208C54.222 15.2214 53.6255 16.8336 53.6255 18.8575C53.6255 20.8814 54.222 22.4936 55.382 23.6943C56.542 24.8948 58.0335 25.5123 59.8563 25.5123C60.917 25.5123 61.8782 25.2722 62.7399 24.7918C63.5021 24.3459 64.1981 23.7285 64.7285 22.9395C64.8611 22.7681 65.0929 22.6994 65.2919 22.8024L68.2417 24.586C68.4405 24.7233 68.5067 24.9634 68.4074 25.2035C67.6119 26.6099 66.5181 27.7076 65.1262 28.4966C63.6016 29.3541 61.8449 29.8 59.8563 29.8C57.702 29.7316 55.8129 29.2856 54.1226 28.3595Z" fill="#262429"/>
<path d="M78.6457 28.3594C76.9887 27.4331 75.6959 26.1297 74.768 24.4832C73.8399 22.8366 73.376 20.9501 73.376 18.8575C73.376 16.765 73.8399 14.9127 74.768 13.2661C75.6959 11.6196 76.9887 10.3504 78.6457 9.42423C80.303 8.49806 82.159 8.01782 84.2471 8.01782C86.335 8.01782 88.2243 8.49806 89.8813 9.42423C91.5385 10.3504 92.8311 11.6196 93.7592 13.2661C94.6871 14.9127 95.1513 16.765 95.1513 18.8575C95.1513 20.9501 94.6871 22.8366 93.7592 24.4832C92.8311 26.1297 91.5385 27.4331 89.8813 28.3594C88.2243 29.2856 86.335 29.7315 84.2471 29.7315C82.159 29.7315 80.303 29.2856 78.6457 28.3594ZM88.5887 23.6598C89.7489 22.4593 90.3122 20.8471 90.3122 18.8575C90.3122 16.8679 89.7489 15.29 88.5887 14.0551C87.4287 12.8545 85.9705 12.2371 84.214 12.2371C82.4573 12.2371 80.999 12.8545 79.8721 14.0551C78.7452 15.2557 78.1818 16.8679 78.1818 18.8575C78.1818 20.8471 78.7452 22.4593 79.8721 23.6598C80.999 24.8605 82.4573 25.4779 84.214 25.4779C86.0036 25.4779 87.4618 24.8947 88.5887 23.6598Z" fill="#262429"/>
<path d="M103.37 29.4571C103.602 29.4571 103.801 29.2512 103.801 29.0111V17.0738V16.765C103.801 15.29 104.232 14.2609 105.094 13.472C105.956 12.683 107.016 12.2714 108.706 12.2714C108.706 12.2714 109.502 12.2714 110.364 12.3743C110.629 12.4086 110.861 12.2028 110.861 11.9283V8.73818C110.861 8.53236 110.695 8.32654 110.496 8.29224C109.701 8.15503 108.74 8.05212 107.878 8.05212C104.961 8.05212 103.006 8.80678 101.382 10.2818C99.7908 11.7911 98.9955 14.0208 98.9955 17.0394V29.0111C98.9955 29.2512 99.1943 29.4571 99.4263 29.4571H103.37Z" fill="#262429"/>
<path d="M19.5878 13.2318C18.6929 11.5853 17.4666 10.2818 15.9088 9.38992C14.3511 8.46376 12.5613 8.01782 10.5727 8.01782C8.55099 8.01782 6.72811 8.49806 5.13721 9.42423C3.5132 10.3504 2.25374 11.6539 1.35888 13.3004C0.464007 14.947 0 16.7993 0 18.8918C0 20.9843 0.464005 22.8708 1.39202 24.5175C2.32004 26.1639 3.64576 27.4675 5.36923 28.3937C7.09268 29.3198 9.04814 29.7658 11.3019 29.7658C13.0585 29.7658 14.6494 29.4915 16.0414 28.9081C17.334 28.3937 18.3946 27.6047 19.2895 26.6099C19.4221 26.4385 19.4221 26.1984 19.2895 26.0268L17.2677 23.6256C17.102 23.4542 16.8368 23.4197 16.6711 23.5913C15.2791 24.929 13.5225 25.5808 11.4345 25.5808C9.67786 25.5808 8.18641 25.1348 6.99325 24.2087C5.80009 23.2825 5.07094 22.0476 4.77265 20.5041H20.2174C20.5821 20.5041 20.8803 20.2296 20.8803 19.8523C20.9134 19.5092 20.9134 19.2691 20.9134 19.029C20.9134 16.7993 20.4495 14.9127 19.5878 13.2318ZM6.66182 13.4033C7.72241 12.4772 9.015 11.9969 10.5396 11.9969C12.0973 11.9969 13.3899 12.4772 14.4505 13.4376C15.3785 14.2609 15.9751 15.3243 16.2403 16.5935H4.83892C5.10408 15.29 5.73379 14.2266 6.66182 13.4033Z" fill="#262429"/>
<path d="M126.738 29.457H130.284C130.516 29.457 130.715 29.2512 130.715 29.0111V17.0394C130.715 14.0208 129.92 11.7568 128.329 10.2818C126.738 8.77248 123.987 7.94922 120.971 7.94922C119.048 7.94922 117.822 8.08643 116.496 8.29224C116.298 8.32655 116.132 8.53236 116.132 8.73818V11.9283C116.132 12.2028 116.364 12.4086 116.629 12.3743C118.485 12.0998 122.628 11.5853 124.617 13.369C125.478 14.158 125.909 15.29 125.909 16.7993V17.108H120.606C117.656 17.108 115.502 17.6912 114.143 18.8232C112.784 19.9895 112.088 21.4988 112.088 23.4197C112.088 24.6204 112.387 25.718 113.016 26.6786C113.646 27.639 114.541 28.3937 115.668 28.9426C116.828 29.4913 118.154 29.7658 119.711 29.7658C121.634 29.7658 124.418 29.0111 126.274 27.0901V29.0453C126.307 29.2512 126.506 29.457 126.738 29.457ZM125.942 23.6598C125.047 25.1006 122.562 26.1297 120.772 26.1297C119.546 26.1297 118.585 25.8552 117.888 25.3407C117.192 24.8261 116.861 24.1058 116.861 23.2139C116.861 21.3273 118.253 20.4012 121.004 20.4012H125.942V23.6598Z" fill="#262429"/>
<path d="M165.845 0.506531L162.663 12.8555C162 15.4282 163.492 18.1039 165.978 18.7899L177.909 22.0829C178.241 20.7453 177.644 19.3388 176.451 18.7213L170.021 15.4282C168.331 14.605 167.337 12.7869 167.502 10.866L167.999 3.55947C168.066 2.15306 167.171 0.883861 165.845 0.506531Z" fill="#F5BC18"/>
<path d="M169.225 12.8886C169.656 13.6776 170.352 14.2608 171.115 14.5352C171.314 14.6038 171.545 14.6038 171.744 14.4666L175.026 12.5113C176.285 11.7567 176.716 10.0415 175.92 8.73802C175.158 7.50313 173.567 7.1601 172.374 7.91476L169.159 9.83572C168.96 9.93863 168.828 10.1444 168.795 10.3846C168.662 11.2078 168.795 12.0997 169.225 12.8886Z" fill="#F5BC18"/>
<path d="M143.606 12.5801L155.537 15.8732C158.023 16.5592 160.608 15.0156 161.271 12.4429L164.453 0.0939356C163.16 -0.249092 161.801 0.368358 161.205 1.60326L158.023 8.25799C157.228 10.0074 155.471 11.0365 153.615 10.865L146.555 10.3505C145.23 10.2819 143.97 11.208 143.606 12.5801Z" fill="#40C1EF"/>
<path d="M155.571 9.08164C156.333 8.6357 156.896 7.91535 157.162 7.12639C157.228 6.92058 157.228 6.68046 157.095 6.47462L155.206 3.07867C154.477 1.77516 152.82 1.32922 151.56 2.15248C150.367 2.94146 150.036 4.58798 150.765 5.82287L152.621 9.15024C152.72 9.35606 152.919 9.49327 153.151 9.52757C153.947 9.69908 154.808 9.56187 155.571 9.08164Z" fill="#40C1EF"/>
<path d="M155.305 35.4944L158.487 23.1455C159.15 20.5727 157.658 17.8971 155.172 17.211L143.241 13.918C142.909 15.2558 143.506 16.6622 144.699 17.2796L151.129 20.5727C152.819 21.3959 153.814 23.214 153.648 25.135L153.151 32.4414C153.084 33.8135 153.979 35.1172 155.305 35.4944Z" fill="#8FC640"/>
<path d="M151.924 23.111C151.493 22.322 150.797 21.7389 150.035 21.4646C149.836 21.3959 149.604 21.3959 149.405 21.533L146.124 23.4885C144.865 24.243 144.434 25.9581 145.229 27.2618C145.991 28.4967 147.582 28.8397 148.776 28.085L151.99 26.164C152.189 26.0611 152.322 25.8552 152.355 25.6151C152.521 24.7919 152.388 23.9 151.924 23.111Z" fill="#8FC640"/>
<path d="M177.543 23.4198L165.612 20.1267C163.126 19.4407 160.541 20.9844 159.878 23.557L156.696 35.9061C157.989 36.2491 159.347 35.6316 159.944 34.3966L163.126 27.742C163.921 25.9926 165.678 24.9635 167.534 25.1349L174.594 25.6496C175.952 25.7181 177.179 24.7919 177.543 23.4198Z" fill="#F15A52"/>
<path d="M165.578 26.9188C164.816 27.3648 164.253 28.0851 163.988 28.8741C163.921 29.0799 163.921 29.32 164.054 29.5259L165.943 32.9219C166.672 34.2253 168.329 34.6713 169.589 33.848C170.782 33.0591 171.113 31.4124 170.384 30.1775L168.528 26.8501C168.429 26.6443 168.23 26.5071 167.998 26.4729C167.236 26.3013 166.374 26.4386 165.578 26.9188Z" fill="#F15A52"/>
</svg>
