<svg width="203" height="41" viewBox="0 0 203 41" fill="none" xmlns="http://www.w3.org/2000/svg">
<path d="M49.9303 12.0949C51.741 13.8676 52.6656 16.4497 52.6656 19.8797V33.0215C52.6656 33.2912 52.4346 33.5225 52.1648 33.5225H47.6189C47.3494 33.5225 47.1181 33.2912 47.1181 33.0215V20.6119C47.1181 18.5309 46.6173 16.9507 45.6542 15.9102C44.6913 14.8696 43.2658 14.3301 41.4552 14.3301C39.4135 14.3301 37.7955 14.9467 36.6013 16.18C35.4069 17.4132 34.8291 19.186 34.8291 21.4983V33.0215C34.8291 33.2912 34.5979 33.5225 34.3283 33.5225H29.744C29.4742 33.5225 29.2432 33.2912 29.2432 33.0215V11.3241C29.2432 10.0137 30.8227 9.32005 31.7856 10.2064L34.5594 12.7886C35.4841 11.6709 36.6398 10.8616 38.0265 10.2835C39.4135 9.70544 40.9929 9.43567 42.765 9.43567C45.7314 9.47421 48.1197 10.3606 49.9303 12.0949Z" fill="white"/>
<path d="M63.3761 32.3279C61.4114 31.2871 59.8705 29.8228 58.7918 27.973C57.6745 26.123 57.1353 24.0035 57.1353 21.6525C57.1353 19.3016 57.6745 17.2206 58.7918 15.3707C59.909 13.5208 61.4114 12.0949 63.3761 11.0543C65.3409 10.0138 67.5367 9.47424 70.0407 9.47424C72.3908 9.47424 74.4325 9.93671 76.2046 10.9002C77.8227 11.7866 79.0938 12.9813 79.98 14.5614C80.0954 14.7926 80.0184 15.1009 79.7874 15.2165L76.3203 17.2206C76.089 17.3362 75.8192 17.2976 75.6653 17.0664C75.0104 16.1415 74.2399 15.4478 73.3539 14.9853C72.3136 14.4457 71.1964 14.176 70.0022 14.176C67.9221 14.176 66.1884 14.8697 64.8401 16.2186C63.4918 17.5674 62.7984 19.3787 62.7984 21.6525C62.7984 23.9263 63.4918 25.7376 64.8401 27.0866C66.1884 28.4353 67.9221 29.1292 70.0407 29.1292C71.2735 29.1292 72.3908 28.8594 73.3924 28.3197C74.2784 27.8187 75.0874 27.1251 75.7038 26.2386C75.8579 26.0461 76.1275 25.9689 76.3587 26.0845L79.7874 28.0884C80.0184 28.2427 80.0954 28.5125 79.98 28.7822C79.0553 30.3623 77.784 31.5956 76.1661 32.482C74.394 33.4453 72.3521 33.9464 70.0407 33.9464C67.5367 33.8694 65.3409 33.3684 63.3761 32.3279Z" fill="white"/>
<path d="M88.9556 32.3279C87.0295 31.2871 85.5269 29.8228 84.4484 27.973C83.3696 26.123 82.8303 24.0035 82.8303 21.6525C82.8303 19.3016 83.3696 17.2206 84.4484 15.3707C85.5269 13.5208 87.0295 12.0949 88.9556 11.0543C90.8818 10.0138 93.0392 9.47424 95.4662 9.47424C97.8931 9.47424 100.089 10.0138 102.015 11.0543C103.941 12.0949 105.444 13.5208 106.523 15.3707C107.601 17.2206 108.141 19.3016 108.141 21.6525C108.141 24.0035 107.601 26.123 106.523 27.973C105.444 29.8228 103.941 31.2871 102.015 32.3279C100.089 33.3684 97.8931 33.8694 95.4662 33.8694C93.0392 33.8694 90.8818 33.3684 88.9556 32.3279ZM100.513 27.0479C101.861 25.6991 102.516 23.8879 102.516 21.6525C102.516 19.4173 101.861 17.6445 100.513 16.2571C99.1644 14.9082 97.4694 14.2145 95.4277 14.2145C93.3858 14.2145 91.6909 14.9082 90.381 16.2571C89.0712 17.6059 88.4163 19.4173 88.4163 21.6525C88.4163 23.8879 89.0712 25.6991 90.381 27.0479C91.6909 28.3969 93.3858 29.0905 95.4277 29.0905C97.5079 29.0905 99.2029 28.4353 100.513 27.0479Z" fill="white"/>
<path d="M117.695 33.5608C117.964 33.5608 118.196 33.3295 118.196 33.0598V19.6483V19.3014C118.196 17.6443 118.696 16.4881 119.698 15.6017C120.7 14.7153 121.932 14.2528 123.897 14.2528C123.897 14.2528 124.822 14.2528 125.823 14.3685C126.131 14.407 126.401 14.1758 126.401 13.8675V10.2833C126.401 10.0521 126.208 9.82088 125.977 9.78234C125.053 9.62819 123.935 9.51257 122.934 9.51257C119.544 9.51257 117.271 10.3604 115.383 12.0176C113.534 13.7133 112.61 16.2183 112.61 19.6097V33.0598C112.61 33.3295 112.841 33.5608 113.11 33.5608H117.695Z" fill="white"/>
<path d="M23.2339 15.3321C22.1937 13.4823 20.7683 12.0178 18.9577 11.0158C17.1471 9.97525 15.0668 9.47424 12.7554 9.47424C10.4054 9.47424 8.28665 10.0138 6.43748 11.0543C4.54983 12.0949 3.08592 13.5594 2.04578 15.4092C1.00564 17.2591 0.466309 19.3402 0.466309 21.6911C0.466309 24.042 1.00564 26.1615 2.08431 28.0115C3.16297 29.8612 4.70392 31.3258 6.70717 32.3664C8.71039 33.4069 10.9833 33.9079 13.6029 33.9079C15.6447 33.9079 17.4938 33.5997 19.1118 32.9443C20.6143 32.3664 21.847 31.4799 22.8872 30.3623C23.0413 30.1697 23.0413 29.8999 22.8872 29.7071L20.5372 27.0094C20.3446 26.8168 20.0364 26.7781 19.8438 26.9709C18.2258 28.4738 16.184 29.2061 13.757 29.2061C11.7152 29.2061 9.98168 28.7051 8.59482 27.6646C7.20797 26.624 6.36045 25.2366 6.01374 23.5025H23.9658C24.3896 23.5025 24.7363 23.194 24.7363 22.7702C24.7748 22.3848 24.7748 22.115 24.7748 21.8452C24.7748 19.3402 24.2355 17.2206 23.2339 15.3321ZM8.20959 15.5248C9.44236 14.4843 10.9448 13.9447 12.7169 13.9447C14.5275 13.9447 16.0299 14.4843 17.2627 15.5634C18.3413 16.4883 19.0348 17.683 19.343 19.1089H6.09077C6.39897 17.6445 7.13091 16.4498 8.20959 15.5248Z" fill="white"/>
<path d="M144.853 33.5607H148.975C149.244 33.5607 149.476 33.3294 149.476 33.0597V19.6096C149.476 16.2182 148.551 13.6747 146.702 12.0175C144.853 10.3218 141.655 9.39685 138.15 9.39685C135.915 9.39685 134.49 9.55101 132.949 9.78224C132.718 9.82078 132.525 10.052 132.525 10.2832V13.8674C132.525 14.1757 132.795 14.4069 133.103 14.3684C135.26 14.06 140.076 13.482 142.387 15.486C143.389 16.3724 143.89 17.6442 143.89 19.3399V19.6867H137.726C134.297 19.6867 131.793 20.3419 130.214 21.6137C128.634 22.924 127.825 24.6196 127.825 26.7778C127.825 28.1268 128.172 29.3599 128.904 30.4391C129.636 31.5181 130.676 32.3661 131.986 32.9827C133.334 33.5992 134.875 33.9076 136.686 33.9076C138.92 33.9076 142.156 33.0597 144.313 30.9015V33.0981C144.352 33.3294 144.583 33.5607 144.853 33.5607ZM143.928 27.0476C142.888 28.6663 139.999 29.8225 137.918 29.8225C136.493 29.8225 135.376 29.514 134.567 28.9361C133.758 28.3579 133.373 27.5486 133.373 26.5466C133.373 24.4271 134.991 23.3865 138.188 23.3865H143.928V27.0476Z" fill="white"/>
<path d="M188.115 1.03418L184.417 14.9082C183.646 17.7986 185.38 20.8046 188.269 21.5754L202.138 25.2751C202.523 23.7722 201.83 22.192 200.443 21.4983L192.969 17.7986C191.005 16.8737 189.849 14.8311 190.041 12.6729L190.619 4.46413C190.696 2.88405 189.656 1.45811 188.115 1.03418Z" fill="#F5BC18"/>
<path d="M192.045 14.9466C192.546 15.833 193.355 16.4881 194.241 16.7964C194.472 16.8735 194.741 16.8735 194.973 16.7194L198.787 14.5226C200.25 13.6748 200.751 11.7478 199.827 10.2834C198.941 8.89596 197.091 8.51058 195.705 9.35843L191.968 11.5166C191.737 11.6322 191.582 11.8635 191.544 12.1332C191.39 13.0582 191.544 14.0602 192.045 14.9466Z" fill="#F5BC18"/>
<path d="M162.267 14.5997L176.135 18.2995C179.025 19.0702 182.029 17.336 182.8 14.4456L186.498 0.5716C184.996 0.186211 183.416 0.879912 182.723 2.26731L179.025 9.74385C178.1 11.7093 176.058 12.8655 173.901 12.6728L165.695 12.0947C164.154 12.0177 162.69 13.0582 162.267 14.5997Z" fill="#40C1EF"/>
<path d="M176.174 10.6689C177.06 10.1679 177.715 9.35854 178.023 8.47215C178.1 8.24092 178.1 7.97115 177.946 7.73989L175.75 3.92457C174.903 2.46008 172.977 1.95908 171.513 2.884C170.126 3.77041 169.741 5.62027 170.588 7.00766L172.746 10.7459C172.861 10.9772 173.092 11.1313 173.362 11.1699C174.287 11.3626 175.288 11.2084 176.174 10.6689Z" fill="#40C1EF"/>
<path d="M175.864 40.3436L179.563 26.4697C180.333 23.5792 178.6 20.5732 175.71 19.8024L161.842 16.1027C161.457 17.6057 162.15 19.1858 163.537 19.8795L171.011 23.5792C172.975 24.5041 174.131 26.5467 173.938 28.7049L173.36 36.9136C173.283 38.4552 174.324 39.9198 175.864 40.3436Z" fill="#8FC640"/>
<path d="M171.937 26.4311C171.436 25.5447 170.627 24.8896 169.741 24.5813C169.51 24.5042 169.24 24.5042 169.009 24.6583L165.195 26.8552C163.731 27.7029 163.23 29.6298 164.155 31.0944C165.041 32.4819 166.89 32.8673 168.277 32.0193L172.014 29.8611C172.245 29.7455 172.399 29.5142 172.438 29.2445C172.63 28.3196 172.476 27.3175 171.937 26.4311Z" fill="#8FC640"/>
<path d="M201.715 26.7779L187.846 23.0781C184.957 22.3074 181.952 24.0417 181.182 26.932L177.483 40.8061C178.986 41.1915 180.565 40.4977 181.259 39.1102L184.957 31.6338C185.882 29.6684 187.923 28.5122 190.081 28.7048L198.286 29.283C199.866 29.3599 201.291 28.3194 201.715 26.7779Z" fill="#F15A52"/>
<path d="M187.807 30.7091C186.921 31.2101 186.266 32.0194 185.958 32.9058C185.881 33.137 185.881 33.4068 186.035 33.6381L188.231 37.4535C189.078 38.9178 191.004 39.4189 192.468 38.494C193.855 37.6076 194.24 35.7576 193.393 34.3701L191.236 30.6319C191.12 30.4006 190.889 30.2465 190.619 30.2081C189.733 30.0153 188.732 30.1696 187.807 30.7091Z" fill="#F15A52"/>
</svg>
